<svg xmlns="http://www.w3.org/2000/svg" xmlns:xlink="http://www.w3.org/1999/xlink" width="63.031" height="55.125" viewBox="0 0 63.031 55.125">
  <defs>
    <style>
      .cls-1 {
        fill-rule: evenodd;
        filter: url(#filter);
      }
    </style>
    <filter id="filter" x="376.344" y="40" width="63.031" height="55.125" filterUnits="userSpaceOnUse">
      <feFlood result="flood" flood-color="#fff"/>
      <feComposite result="composite" operator="in" in2="SourceGraphic"/>
      <feBlend result="blend" in2="SourceGraphic"/>
    </filter>
  </defs>
  <path id="logos" class="cls-1" d="M413.108,50.713H402.6l5.254,9.191Zm-11.822.766-5.254,9.191H406.54Zm18.39,9.191-5.254-9.191-5.254,9.191h10.508ZM409.168,62.2l5.254,9.188,5.254-9.188H409.168Zm-13.136,0,5.254,9.188L406.54,62.2H396.032Zm-6.567,9.952h10.506l-5.253-9.187Zm36.778,0-5.253-9.187-5.252,9.187h10.5Zm-18.389-32.16-5.254,9.19h10.508ZM420.99,82.874l5.253-9.188h-10.5Zm-26.272,0,5.253-9.188H389.465Zm-11.821.767H393.4l-5.253-9.19Zm49.914,0-5.254-9.19L422.3,83.641h10.508ZM422.3,85.172l5.254,9.187,5.254-9.187H422.3Zm-13.135,0,5.254,9.187,5.254-9.187H409.168Zm-21.017,9.187,5.253-9.187H382.9Zm-11.82.769h10.5l-5.254-9.188Zm26.269,0h10.508l-5.254-9.188Zm13.138,0h10.5l-5.253-9.188Zm18.387-9.188-5.252,9.188h10.5Z" transform="translate(-376.344 -40)"/>
</svg>
